<?xml version="1.0" encoding="UTF-8"?>
<svg width="171px" height="22px" viewBox="0 0 171 22" version="1.1" xmlns="http://www.w3.org/2000/svg" xmlns:xlink="http://www.w3.org/1999/xlink">
  <title>aptiv-logo</title>
  <desc>Created with Sketch.</desc>
  <defs></defs>
  <g id="Symbols" stroke="none" stroke-width="1" fill="none" fill-rule="evenodd">
    <g id="Header-Dark" transform="translate(-125.000000, -66.000000)">
      <g id="Dark">
        <g id="Group-4">
          <g id="Group-6">
            <g id="aptiv-logo" transform="translate(125.000000, 66.000000)">
              <path d="M166.950111,6 C164.713466,6 162.900523,7.79074267 162.900523,10 C162.900523,12.2092573 164.713466,14 166.950111,14 C169.186756,14 171,12.2092573 171,10 C171,7.79074267 169.186756,6 166.950111,6 Z M8.0994766,10 C8.0994766,12.2092573 6.28623291,14 4.04958762,14 C1.81324369,14 0,12.2092573 0,10 C0,7.79074267 1.81324369,6 4.04958762,6 C6.28623291,6 8.0994766,7.79074267 8.0994766,10 L8.0994766,10 Z" id="Fill-1" fill="#F84018"></path>
              <path d="M130.808086,0 L136.716175,0 L140.812061,16.5773056 L142.147067,16.5773056 L146.212865,0 L152,0 L145.961931,22 L136.875942,22 L130.808086,0 Z M112.037056,22 L117.68037,22 L117.68037,0 L112.037056,0 L112.037056,22 Z M98.8560841,5.05327778 L92.3627827,5.05327778 L92.3627827,22 L86.7188668,22 L86.7188668,5.05327778 L80.2571578,5.05327778 L80.2571578,0 L98.8560841,0 L98.8560841,5.05327778 Z M60.9607905,9.70627778 C63.1758726,9.70627778 64.0252581,8.90480556 64.0252581,7.33363889 C64.0252581,5.76216667 63.1758726,4.99155556 60.9607905,4.99155556 L56.9560715,4.99155556 L56.9560715,9.70627778 L60.9607905,9.70627778 Z M61.6898239,0 C66.817128,0 69.7898271,2.65008333 69.7898271,7.24105556 C69.7898271,11.89375 66.817128,14.60525 61.6898239,14.60525 L56.9560715,14.60525 L56.9560715,22 L51.3127573,22 L51.3127573,0 L61.6898239,0 Z M27.2522487,11.8011667 L32.0771679,11.8011667 L30.3468043,5.42361111 L29.0127003,5.42361111 L27.2522487,11.8011667 Z M40.5114493,22 L34.8982232,22 L33.3210078,16.2995556 L26.0384969,16.2995556 L24.4919712,22 L19,22 L25.4926997,0 L34.0181478,0 L40.5114493,22 L40.5114493,22 Z" id="Fill-2" fill="#FFFFFF"></path>
            </g>
          </g>
        </g>
      </g>
    </g>
  </g>
</svg>